<?xml version="1.0" encoding="UTF-8" standalone="no"?>
<!-- Created with Inkscape (http://www.inkscape.org/) -->

<svg
   width="107.14345mm"
   height="107.14345mm"
   viewBox="0 0 107.14345 107.14345"
   version="1.1"
   id="svg1"
   sodipodi:docname="logo.svg"
   inkscape:version="1.3.2 (091e20ef0f, 2023-11-25)"
   xmlns:inkscape="http://www.inkscape.org/namespaces/inkscape"
   xmlns:sodipodi="http://sodipodi.sourceforge.net/DTD/sodipodi-0.dtd"
   xmlns="http://www.w3.org/2000/svg"
   xmlns:svg="http://www.w3.org/2000/svg">
  <sodipodi:namedview
     id="namedview1"
     pagecolor="#ffffff"
     bordercolor="#000000"
     borderopacity="0.25"
     inkscape:showpageshadow="2"
     inkscape:pageopacity="0.0"
     inkscape:pagecheckerboard="0"
     inkscape:deskcolor="#d1d1d1"
     inkscape:document-units="mm"
     inkscape:zoom="2"
     inkscape:cx="218.5"
     inkscape:cy="150.75"
     inkscape:window-width="1920"
     inkscape:window-height="1043"
     inkscape:window-x="0"
     inkscape:window-y="0"
     inkscape:window-maximized="1"
     inkscape:current-layer="svg1" />
  <defs
     id="defs1" />
  <path
     id="path5"
     style="fill:#1a1a1a;stroke:none;stroke-width:0.264583"
     d="m 94.736853,78.919731 c -5.625753,0.291695 -10.840409,0.583217 -16.466165,0.874882 0.194955,0.228674 0.34253,0.393171 0.464055,0.518314 0.01967,-0.0011 0.01491,-9.5e-4 0.03462,-0.0021 5.760717,-0.263639 11.110064,-0.52701 16.870791,-0.790649 z m -18.596978,0.928108 c -5.836434,0.265033 -11.09416,0.538346 -16.931086,0.7922 -5.498076,0.239035 -10.998438,0.426714 -16.495634,0.68523 -3.953228,0.185963 -7.902796,0.433891 -11.854573,0.648539 -3.218075,0.174772 -6.436338,0.350079 -9.654708,0.519348 -2.047192,0.107742 -4.097368,0.16643 -6.142261,0.311609 -0.322198,0.02325 -0.633595,0.127248 -0.95033,0.190686 l 3.335197,2.103747 c 2.468727,-0.647884 1.486175,-0.427709 6.277653,-0.945678 6.745014,-0.729164 13.940208,-1.231878 20.671607,-1.714624 18.494188,-1.326305 14.003844,-1.032536 32.949229,-2.103748 z"
     sodipodi:nodetypes="ccccccccccccccsscc" />
  <path
     style="fill:#1a1a1a;stroke:none;stroke-width:0.265;stroke-opacity:1;stroke-dasharray:none"
     id="path7"
     d="m 14.761697,70.085667 c 8.514491,-1.481797 17.189598,-1.852682 25.798261,-2.4263 13.470017,-0.783006 26.945658,-1.464917 40.419577,-2.176663 0,0 -2.222131,-1.471538 -2.222131,-1.471538 v 0 c -13.346552,1.021789 -26.70354,1.912775 -40.082193,2.397688 -3.471169,0.155847 -6.94209,0.317388 -10.413508,0.46764 -5.602569,0.242428 -11.222241,0.35646 -16.795964,1.015474 z" />
  <path
     id="path1"
     style="fill:#1a1a1a;stroke:none;stroke-width:0.264583"
     d="m 48.292143,22.090125 c -1.05859,3.460085 -2.707409,6.715768 -4.220414,9.989054 -5.336482,11.545108 -2.347772,5.342827 -8.666655,17.864543 -2.877754,5.705175 -5.781661,11.095797 -8.869693,16.687518 0.681148,-0.02961 1.362167,-0.06175 2.043287,-0.09198 2.925315,-5.292074 5.750697,-10.336769 8.737401,-15.594562 1.732308,-3.191185 3.449971,-6.39048 5.197098,-9.573576 3.348475,-6.100591 4.322584,-7.833478 4.530473,-8.180896 0.21733,-0.4267 0.735806,-1.424633 2.136821,-4.075203 0.558958,-1.057483 1.151226,-2.097514 1.698604,-3.161048 0.30569,-0.593941 0.667023,-1.438793 0.954464,-2.099096 z M 47.04364,33.190222 c -0.359739,0.706303 0.222775,-0.372291 0,0 z M 27.316245,68.931333 c -0.696108,0.05182 -1.393091,0.09191 -2.088761,0.148311 -2.576408,4.635602 -5.07681,8.571282 -7.698838,13.181083 0.746731,-0.03556 1.493317,-0.07542 2.240173,-0.109037 2.553187,-4.633372 4.991234,-8.58857 7.547426,-13.220357 z"
     sodipodi:nodetypes="csccccscssccccccccc" />
  <path
     id="path2"
     style="fill:#1a1a1a;stroke:none;stroke-width:0.264583"
     d="m 51.036162,23.47867 c 1.110124,2.092242 1.570263,2.905547 2.663403,5.285983 5.347046,11.643791 9.77817,23.417229 14.414107,35.354043 0.05578,0.141407 0.08715,0.218751 0.135393,0.340548 0.527772,-0.03537 1.055631,-0.06893 1.583366,-0.104903 -1.258585,-3.283745 -2.531973,-6.289126 -3.769279,-9.58094 C 64.81603,51.455493 63.609901,48.122295 62.383273,44.796749 61.332474,42.01317 60.278902,39.230518 59.23101,36.445837 58.430206,34.317787 57.670252,32.174324 56.837358,30.05863 56.158319,28.333745 55.318784,26.675202 54.665914,24.939046 Z m 17.808732,42.933624 c 4.005566,10.151608 4.82401,11.922716 6.541203,12.904316 l 3.229777,1.30638 C 75.467032,77.644168 75.043715,76.483425 70.649483,66.341402 Z"
     sodipodi:nodetypes="cscccscssccccccc" />
</svg>
