<?xml version="1.0" encoding="UTF-8" standalone="no"?>
<svg
   viewBox="0 0 24 24"
   version="1.1"
   id="svg1"
   xmlns="http://www.w3.org/2000/svg"
   xmlns:svg="http://www.w3.org/2000/svg">
  <defs
     id="defs1" />
  <path
     d="M 5.5575805,4.5500867 H 21.557581 c 0.5523,0 1,0.44772 1,1 V 21.550087 c 0,0.5523 -0.4477,1 -1,1 H 5.5575805 c -0.55228,0 -1,-0.4477 -1,-1 V 5.5500867 c 0,-0.55228 0.44772,-1 1,-1 z M 18.214085,3.3119648 4.4611669,4.3337201 4.8297818,20.209345 20.557581,20.550087 V 6.5500867 Z"
     id="path2"
     style="fill:#333333" />
  <path
     d="M4 3H20C20.5523 3 21 3.44772 21 4V20C21 20.5523 20.5523 21 20 21H4C3.44772 21 3 20.5523 3 20V4C3 3.44772 3.44772 3 4 3ZM5 5V19H19V5H5Z"
     id="path1" />
</svg>
